# xmcd
#
# Track frame offsets:
#	150
#	14991
#	29327
#	43506
#	55505
#	68636
#	81251
#	94291
#	105479
#	123242
#	133684
#	146171
#	163774
#	176821
#	190136
#	200429
#
# Disc length: 2840 seconds
#
# Revision: 0
# Processed by: cddbd v1.5.2PL0 Copyright (c) Steve Scherf et al.
# Submitted via: audiograbber 1.83.01
#
DISCID=e40b1610
DTITLE=Various Artist - Das Klingende Schlageralbum 1968
DYEAR=1968
DGENRE=Schlager
TTITLE0=Peter Alexander  - Delilah
TTITLE1=Manuela  - Guantanamera
TTITLE2=Udo Jürgens  - Cotton Fields
TTITLE3=Horst Fischer  - Congratulations
TTITLE4=Peggy March  - Mississippi Shuffle Boat
TTITLE5=Ronny  - Hohe Tannen
TTITLE6=Marion Costa  - Sind Sie Der Graf Von Luxemburg?
TTITLE7=Heintje  - Mama
TTITLE8=Sandie Shaw  - An Jenem Tag (Those Were The Days)
TTITLE9=Giorgio  - Yummy, Yummy, Yummy
TTITLE10=France Gall  - Der Computer Nr. 3
TTITLE11=Bobby Goldsboro  - Honey
TTITLE12=The Tattoos  - La La La
TTITLE13=John Smith And The New Sound  - Judy In Disguise
TTITLE14=Siw Malmkvist  - Harlekin
TTITLE15=Tommy James And The Shondells  - Mony Mony
EXTD=
EXTT0=
EXTT1=
EXTT2=
EXTT3=
EXTT4=
EXTT5=
EXTT6=
EXTT7=
EXTT8=
EXTT9=
EXTT10=
EXTT11=
EXTT12=
EXTT13=
EXTT14=
EXTT15=
PLAYORDER=
